<svg width="201" height="202" viewBox="0 0 201 202" fill="none" xmlns="http://www.w3.org/2000/svg">
<path d="M199.869 101.56L170.349 131.85C169.209 133.01 167.339 133.02 166.179 131.87L132.219 97.9303C131.359 97.0703 129.889 97.6803 129.889 98.9003L129.429 172.62C129.429 173.7 128.999 174.74 128.239 175.5L102.969 200.77C102.319 201.42 101.499 201.91 100.639 201.91C99.7788 201.91 98.9688 201.42 98.3088 200.77L73.0388 175.5C72.2788 174.74 71.8488 173.7 71.8488 172.62L71.3888 98.9003C71.3888 97.6803 69.9188 97.0703 69.0588 97.9303L35.0988 131.87C33.9488 133.02 32.0788 133.01 30.9288 131.85L1.40875 101.56C0.358755 100.5 0.368755 98.8003 1.40875 97.7403L98.0388 1.26031C98.7588 0.530315 99.6888 0.0703125 100.649 0.0703125C101.599 0.0703125 102.539 0.520315 103.259 1.26031L199.889 97.7403C200.919 98.8003 200.919 100.5 199.869 101.56Z" fill="#EC0012"/>
<mask id="mask0_4888_96739" style="mask-type:luminance" maskUnits="userSpaceOnUse" x="0" y="0" width="201" height="202">
<path d="M199.869 101.56L170.349 131.85C169.209 133.01 167.339 133.02 166.179 131.87L132.219 97.9303C131.359 97.0703 129.889 97.6803 129.889 98.9003L129.429 172.62C129.429 173.7 128.999 174.74 128.239 175.5L102.969 200.77C102.319 201.42 101.499 201.91 100.639 201.91C99.7788 201.91 98.9688 201.42 98.3088 200.77L73.0388 175.5C72.2788 174.74 71.8488 173.7 71.8488 172.62L71.3888 98.9003C71.3888 97.6803 69.9188 97.0703 69.0588 97.9303L35.0988 131.87C33.9488 133.02 32.0788 133.01 30.9288 131.85L1.40875 101.56C0.358755 100.5 0.368755 98.8003 1.40875 97.7403L98.0388 1.26031C98.7588 0.530315 99.6888 0.0703125 100.649 0.0703125C101.599 0.0703125 102.539 0.520315 103.259 1.26031L199.889 97.7403C200.919 98.8003 200.919 100.5 199.869 101.56Z" fill="white"/>
</mask>
<g mask="url(#mask0_4888_96739)">
<path d="M205.561 -8.20898H100.641V207.501H205.561V-8.20898Z" fill="url(#paint0_linear_4888_96739)"/>
<path opacity="0.4" d="M100.639 -8.20898H-4.28125V207.501H100.639V-8.20898Z" fill="url(#paint1_linear_4888_96739)"/>
</g>
<defs>
<linearGradient id="paint0_linear_4888_96739" x1="295.909" y1="-19.5277" x2="6.1553" y2="222.281" gradientUnits="userSpaceOnUse">
<stop offset="0.1819" stop-color="#FF0000"/>
<stop offset="0.237" stop-color="#EB0000"/>
<stop offset="0.5227" stop-color="#880000"/>
<stop offset="0.7534" stop-color="#3F0000"/>
<stop offset="0.9176" stop-color="#110000"/>
<stop offset="1"/>
</linearGradient>
<linearGradient id="paint1_linear_4888_96739" x1="190.987" y1="-19.5277" x2="-98.7668" y2="222.281" gradientUnits="userSpaceOnUse">
<stop offset="0.3542" stop-color="#EC1343"/>
<stop offset="0.3681" stop-color="#EF355E"/>
<stop offset="0.3902" stop-color="#F26483"/>
<stop offset="0.4136" stop-color="#F68DA5"/>
<stop offset="0.438" stop-color="#F9B1C1"/>
<stop offset="0.4637" stop-color="#FBCDD7"/>
<stop offset="0.4911" stop-color="#FDE3E9"/>
<stop offset="0.5209" stop-color="#FEF3F5"/>
<stop offset="0.555" stop-color="#FFFCFD"/>
<stop offset="0.6031" stop-color="white"/>
</linearGradient>
</defs>
</svg>
