<svg width="420" height="420" viewBox="0 0 420 420" fill="none" xmlns="http://www.w3.org/2000/svg">
<path d="M143.2 384.75C141.567 384.75 139.958 384.45 138.375 383.85C136.792 383.25 135.358 382.275 134.075 380.925C132.808 379.558 131.792 377.75 131.025 375.5C130.275 373.25 129.9 370.483 129.9 367.2C129.9 363.3 130.55 359.942 131.85 357.125C133.167 354.292 134.967 352.117 137.25 350.6C139.55 349.067 142.167 348.3 145.1 348.3C147.45 348.3 149.258 348.533 150.525 349C151.808 349.45 152.85 350.067 153.65 350.85L151.2 355.65C150.533 354.917 149.642 354.417 148.525 354.15C147.408 353.883 146.383 353.75 145.45 353.75C143.717 353.75 142.208 354.267 140.925 355.3C139.658 356.333 138.658 357.658 137.925 359.275C137.192 360.875 136.767 362.533 136.65 364.25C136.633 364.6 136.617 364.925 136.6 365.225C136.6 365.525 136.6 365.817 136.6 366.1C137.5 364.367 138.767 363.108 140.4 362.325C142.05 361.542 143.783 361.15 145.6 361.15C147.85 361.15 149.75 361.65 151.3 362.65C152.867 363.633 154.05 364.958 154.85 366.625C155.65 368.292 156.05 370.133 156.05 372.15C156.05 374.717 155.508 376.942 154.425 378.825C153.358 380.708 151.858 382.167 149.925 383.2C148.008 384.233 145.767 384.75 143.2 384.75ZM143.55 379.6C145.133 379.6 146.492 379 147.625 377.8C148.775 376.583 149.35 374.9 149.35 372.75C149.35 370.8 148.925 369.233 148.075 368.05C147.225 366.85 145.9 366.25 144.1 366.25C143 366.25 141.942 366.525 140.925 367.075C139.925 367.608 139.092 368.325 138.425 369.225C137.775 370.125 137.417 371.117 137.35 372.2C137.35 373.517 137.592 374.742 138.075 375.875C138.575 376.992 139.283 377.892 140.2 378.575C141.133 379.258 142.25 379.6 143.55 379.6ZM161.87 384V351.4L168.62 348.25V384H161.87ZM173.931 384V376.55H179.781V384H173.931ZM192.455 384.65C190.938 384.65 189.322 384.475 187.605 384.125C185.905 383.792 184.438 383.217 183.205 382.4L185.055 376.8C185.788 377.467 186.772 378.033 188.005 378.5C189.238 378.967 190.438 379.2 191.605 379.2C192.405 379.2 193.255 379.142 194.155 379.025C195.072 378.892 195.93 378.617 196.73 378.2C197.53 377.767 198.18 377.117 198.68 376.25C199.197 375.367 199.455 374.183 199.455 372.7C199.455 370.717 198.797 369.142 197.48 367.975C196.163 366.792 194.288 366.2 191.855 366.2C190.922 366.2 189.972 366.292 189.005 366.475C188.055 366.642 187.197 366.85 186.43 367.1C185.663 367.35 185.105 367.583 184.755 367.8L185.405 349.15H204.705V354.45H191.105L190.605 361.9C191.388 361.667 192.155 361.508 192.905 361.425C193.672 361.342 194.505 361.3 195.405 361.3C198.938 361.3 201.622 362.275 203.455 364.225C205.288 366.158 206.205 368.767 206.205 372.05C206.205 374.65 205.622 376.892 204.455 378.775C203.305 380.658 201.697 382.108 199.63 383.125C197.563 384.142 195.172 384.65 192.455 384.65Z" fill="#FF0000"/>
<path d="M218.54 367.465C215.96 367.465 214.055 366.692 212.825 365.147C211.595 363.587 210.98 361.525 210.98 358.96C210.98 355.945 211.663 353.762 213.028 352.412C214.393 351.047 216.23 350.365 218.54 350.365C220.835 350.365 222.643 351.047 223.963 352.412C225.298 353.762 225.965 355.96 225.965 359.005C225.965 360.67 225.725 362.14 225.245 363.415C224.78 364.675 224 365.665 222.905 366.385C221.825 367.105 220.37 367.465 218.54 367.465ZM218.495 382L235.685 350.635H240.095L222.905 382H218.495ZM218.495 364.09C219.245 364.09 219.8 363.857 220.16 363.392C220.52 362.927 220.753 362.32 220.858 361.57C220.963 360.805 221.015 359.98 221.015 359.095C221.015 357.31 220.835 355.982 220.475 355.112C220.13 354.227 219.44 353.785 218.405 353.785C217.415 353.785 216.733 354.22 216.358 355.09C215.983 355.96 215.795 357.25 215.795 358.96C215.795 360.37 215.96 361.577 216.29 362.582C216.62 363.587 217.355 364.09 218.495 364.09ZM240.275 382.675C237.665 382.675 235.753 381.895 234.538 380.335C233.323 378.76 232.715 376.69 232.715 374.125C232.715 371.125 233.39 368.942 234.74 367.577C236.09 366.212 237.92 365.53 240.23 365.53C242.525 365.53 244.34 366.22 245.675 367.6C247.025 368.965 247.7 371.17 247.7 374.215C247.7 375.865 247.46 377.327 246.98 378.602C246.5 379.877 245.713 380.875 244.618 381.595C243.538 382.315 242.09 382.675 240.275 382.675ZM240.14 379.21C240.92 379.21 241.49 378.985 241.85 378.535C242.21 378.085 242.443 377.485 242.548 376.735C242.653 375.985 242.705 375.16 242.705 374.26C242.705 372.475 242.533 371.147 242.188 370.277C241.843 369.392 241.16 368.95 240.14 368.95C239.105 368.95 238.408 369.385 238.048 370.255C237.703 371.125 237.53 372.43 237.53 374.17C237.53 375.565 237.68 376.757 237.98 377.747C238.295 378.722 239.015 379.21 240.14 379.21Z" fill="#FF0000"/>
<path d="M273.879 341.879C275.05 340.707 276.95 340.707 278.121 341.879L297.213 360.971C298.385 362.142 298.385 364.042 297.213 365.213C296.042 366.385 294.142 366.385 292.971 365.213L276 348.243L259.029 365.213C257.858 366.385 255.958 366.385 254.787 365.213C253.615 364.042 253.615 362.142 254.787 360.971L273.879 341.879ZM273 389L273 344L279 344L279 389L273 389Z" fill="#FF0000"/>
<g opacity="0.55">
<path d="M394.791 316.438H21.2094C19.437 316.438 18 314.993 18 313.212C18 311.43 19.437 309.986 21.2094 309.986H394.791C396.563 309.986 398 311.43 398 313.212C398 314.993 396.563 316.438 394.791 316.438Z" fill="white"/>
</g>
<path d="M225.034 143.821H189.701V309.986H225.034V143.821Z" fill="#F15A29"/>
<path d="M215.034 133.216H199.701C194.178 133.216 189.701 137.693 189.701 143.216V289.381C189.701 294.904 194.178 299.381 199.701 299.381H215.034C220.557 299.381 225.034 294.904 225.034 289.381V143.216C225.034 137.693 220.557 133.216 215.034 133.216Z" fill="#F15A29"/>
<path d="M162.206 123.423H126.874V309.986H162.206V123.423Z" fill="#009986"/>
<path d="M152.206 112.818H136.874C131.351 112.818 126.874 117.295 126.874 122.818V289.381C126.874 294.904 131.351 299.381 136.874 299.381H152.206C157.729 299.381 162.206 294.904 162.206 289.381V122.818C162.206 117.295 157.729 112.818 152.206 112.818Z" fill="#009986"/>
<path d="M99.378 205.621H64.045V309.986H99.378V205.621Z" fill="#009986"/>
<path d="M89.3779 196.781H74.045C68.5222 196.781 64.045 201.258 64.045 206.781V291.146C64.045 296.669 68.5222 301.146 74.045 301.146H89.378C94.9008 301.146 99.378 296.669 99.378 291.146V206.781C99.378 201.258 94.9008 196.781 89.3779 196.781Z" fill="#009986"/>
<path d="M287.861 96.3884H252.529V309.986H287.861V96.3884Z" fill="#009986"/>
<path d="M277.861 84.0162H262.529C257.006 84.0162 252.529 88.4934 252.529 94.0162V287.614C252.529 293.136 257.006 297.614 262.529 297.614H277.861C283.384 297.614 287.861 293.136 287.861 287.614V94.0162C287.861 88.4933 283.384 84.0162 277.861 84.0162Z" fill="#009986"/>
<path d="M351.954 65.9533H315.356V309.986H351.954V65.9533Z" fill="#009986"/>
<path d="M341.531 58H324.933C319.41 58 314.933 62.4772 314.933 68V292.032C314.933 297.555 319.41 302.032 324.933 302.032H341.531C347.054 302.032 351.531 297.555 351.531 292.032V68C351.531 62.4772 347.054 58 341.531 58Z" fill="#009986"/>
<g opacity="0.56">
<path d="M53.8022 295.098L115.607 225.36L116.234 224.653L117.241 224.377L207.999 199.578L205.585 200.971L260.691 145.376L261.291 144.771L262.022 144.438L362.51 98.6631L366.041 106.463L265.689 152.539L267.019 151.602L212.907 208.174L211.884 209.245L210.494 209.567L118.847 230.805L120.481 229.823L57.1395 298.155L53.8022 295.098Z" fill="white"/>
<path d="M387.483 91.9499C378.407 101.017 368.004 114.162 362.937 125.363L361.231 103.956L346.298 88.6025C358.028 92.1222 374.722 92.8749 387.483 91.9499Z" fill="white"/>
</g>
<path opacity="0.21" fill-rule="evenodd" clip-rule="evenodd" d="M211.812 419.992C211.208 419.992 210.604 419.99 210.002 419.984L210.002 0.00164795C210.604 -0.0032959 211.208 -0.0057373 211.812 -0.0057373C326.79 -0.0057373 419.997 94.0137 419.997 209.993C419.997 325.972 326.789 419.992 211.812 419.992Z" fill="white" fill-opacity="0.59"/>
<path opacity="0.21" fill-rule="evenodd" clip-rule="evenodd" d="M208.188 0.00789493C208.792 0.00789493 209.396 0.0103579 209.998 0.0161272L209.998 419.998C209.396 420.003 208.792 420.006 208.188 420.006C93.2105 420.006 0.00323486 325.986 0.00323486 210.007C0.00323486 94.0282 93.2105 0.00789493 208.188 0.00789493Z" fill="white" fill-opacity="0.59"/>
</svg>
