<svg width="63" height="64" viewBox="0 0 63 64" fill="none" xmlns="http://www.w3.org/2000/svg">
<path fill-rule="evenodd" clip-rule="evenodd" d="M51.2024 60.4614H2.72363V11.9826H26.963V9.25909H0.000110006V63.1849H53.9259V32.9538H51.2024L51.2024 60.4614Z" fill="#009986"/>
<path fill-rule="evenodd" clip-rule="evenodd" d="M47.4777 9.35033L53.5599 15.4325L25.7814 43.1202L19.79 37.038L47.4777 9.35033ZM59.0067 9.895L55.4663 13.5262L49.4748 7.44396L53.106 3.90357L59.0067 9.895ZM18.0652 39.1259L23.6027 44.7543L16.885 45.8436L18.0652 39.1259ZM15.6141 37.2196L13.7078 49.1117L25.5999 47.2053L26.78 45.9344L62.9101 9.89501L52.9244 6.10352e-05L16.885 36.0395L15.6141 37.2196Z" fill="#009986"/>
</svg>
