<svg width="90" height="90" viewBox="0 0 90 90" fill="none" xmlns="http://www.w3.org/2000/svg">
<path d="M89.2777 39.0607C87.5973 40.3439 45.8406 72.2469 44.9914 72.8973C45.5334 73.3016 37.7639 67.3604 0.705078 39.0607C0.777353 38.9904 43.1845 1.33949 43.0942 1.4098C44.1602 0.460619 45.8045 0.460619 46.8886 1.4098C46.1839 0.777013 57.7659 11.0774 89.2777 39.0607Z" fill="#009986"/>
<path d="M83.3334 10.7082V43.5956L48.6415 70.1023H41.3598L6.6499 43.5956V10.7082C6.6499 9.1965 7.91471 7.96608 9.46862 7.96608H80.5327C82.0686 7.96608 83.3334 9.1965 83.3334 10.7082Z" fill="white" fill-opacity="0.5"/>
<path d="M89.2777 39.0605V85.1485C89.2777 86.2911 88.8079 87.3282 88.0309 88.084C87.254 88.8398 86.1879 89.3144 85.0135 89.3144H4.96928C3.79482 89.3144 2.72877 88.8398 1.95182 88.084C1.17486 87.3282 0.705078 86.3087 0.705078 85.1485V39.0605L29.5065 61.0674L44.9914 72.8971L60.4762 61.0674L89.2777 39.0605Z" fill="#009986"/>
<path d="M10.0104 89.3144H4.96929C3.79482 89.3144 2.72877 88.8398 1.95182 88.084C1.17486 87.3282 0.705078 86.3087 0.705078 85.1485V39.0605L5.72817 42.91V85.1485C5.72817 86.2911 6.19795 87.3282 6.97491 88.084C7.75186 88.8398 8.81791 89.3144 10.0104 89.3144Z" fill="#009986"/>
<path d="M89.2779 39.0605V85.1485C89.2779 86.2911 88.8081 87.3282 88.0311 88.084C87.2542 88.8398 86.1881 89.3144 85.0137 89.3144H77.2803C78.4547 89.3144 79.5389 88.8398 80.2977 88.084C81.0747 87.3282 81.5445 86.3087 81.5445 85.1485V44.9665L89.2779 39.0605Z" fill="#009986"/>
<path d="M52.1088 54.6166H37.8887C36.7504 54.6166 35.6663 55.056 34.8532 55.847C22.9279 67.536 2.04054 88.0137 1.9502 88.1016C2.72715 88.8574 3.7932 89.332 4.96766 89.332H85.0118C86.1862 89.332 87.2704 88.8574 88.0293 88.1016C68.479 68.9422 71.1893 71.5788 55.1262 55.8646C54.3312 55.056 53.2471 54.6166 52.1088 54.6166Z" fill="#009986"/>
<path d="M39.5511 55.8294C27.6258 67.5184 6.73839 87.9961 6.64805 88.084C7.425 88.8399 8.49105 89.3144 9.66552 89.3144H4.96766C3.7932 89.3144 2.72715 88.8399 1.9502 88.084C2.04054 87.9961 22.9279 67.536 34.8532 55.8294C35.6663 55.0385 36.7505 54.599 37.8888 54.599H42.5866C41.4483 54.6166 40.3642 55.056 39.5511 55.8294Z" fill="#009986"/>
<path d="M88.0313 88.084C87.2544 88.8398 86.1883 89.3144 85.0139 89.3144H77.2805C78.4549 89.3144 79.5391 88.8398 80.2979 88.084C60.7477 68.9246 63.458 71.5788 47.413 55.847C46.5999 55.056 45.5158 54.6166 44.3774 54.6166H52.1108C53.2492 54.6166 54.3513 55.0736 55.1464 55.847C71.1913 71.5612 68.481 68.9246 88.0313 88.084Z" fill="#009986"/>
<path d="M89.9819 39.0606C89.9819 38.8672 89.8735 38.6563 89.747 38.5508L84.0373 33.471V10.7082C84.0373 8.80981 82.4654 7.28057 80.514 7.28057H54.5493L47.6832 1.16362C45.7137 -0.594119 43.8526 -0.207416 42.1542 1.30424L35.4507 7.263H9.46798C7.51656 7.263 5.94459 8.79223 5.94459 10.6906V33.4534C2.49348 36.5119 0.252961 38.5157 0.234893 38.5333C0.108412 38.6387 0 38.8672 0 39.043V85.131C0 87.8555 2.25858 90 4.96888 90H85.013C87.7595 90 90 87.8204 90 85.1486V39.0606H89.9819ZM88.5726 85.1486C88.5726 85.8341 88.3738 86.4845 87.9944 87.047L61.5419 61.1378L88.5726 40.5019V85.1486ZM88.1751 39.0254C87.38 39.6406 85.9346 40.748 84.0373 42.1894V35.3517L88.1751 39.0254ZM43.5816 1.91945C44.3947 1.19878 45.6053 1.19878 46.4184 1.91945L46.4365 1.93703C46.7436 2.20069 48.6408 3.88813 52.4533 7.28057H37.5467C41.1604 4.04632 43.5455 1.93703 43.5816 1.91945ZM7.35395 10.7082C7.35395 9.58322 8.29352 8.66919 9.44991 8.66919H80.514C81.6703 8.66919 82.6099 9.58322 82.6099 10.7082C82.6099 15.1025 82.6099 43.3671 82.6099 43.2792L60.5119 60.1535L55.6334 55.3724C54.6938 54.4584 53.411 53.9311 52.0919 53.9311H37.8719C36.5348 53.9311 35.2881 54.4408 34.3305 55.3549L29.4519 60.1359L7.35395 43.2616V10.7082ZM1.40936 85.1486V40.4844L28.4401 61.1203L2.00562 87.047C1.62618 86.4845 1.40936 85.8341 1.40936 85.1486ZM5.94459 35.3517V42.1894L1.80687 39.0254C2.56575 38.3399 4.02931 37.0392 5.94459 35.3517ZM4.96888 88.6114C4.31841 88.6114 3.55953 88.4004 2.9994 88.0313L35.3604 56.3216C36.0289 55.6713 36.9323 55.3021 37.89 55.3021H52.11C53.0496 55.3021 53.9711 55.6713 54.6396 56.3216L86.9825 88.0313C86.4585 88.3653 85.6997 88.6114 85.013 88.6114H4.96888Z" fill="#333333"/>
<path d="M73.432 43.1211C73.8295 43.1211 74.1367 42.8047 74.1367 42.4355C74.1367 42.0488 73.8114 41.75 73.432 41.75H16.5518C16.1543 41.75 15.8472 42.0664 15.8472 42.4355C15.8472 42.8222 16.1724 43.1211 16.5518 43.1211H73.432Z" fill="#333333"/>
<path d="M16.5518 35.1408H73.432C73.8295 35.1408 74.1367 34.8245 74.1367 34.4553C74.1367 34.0686 73.8114 33.7698 73.432 33.7698H16.5518C16.1543 33.7698 15.8472 34.0862 15.8472 34.4553C15.8472 34.8245 16.1543 35.1408 16.5518 35.1408Z" fill="#333333"/>
<path d="M73.432 27.1431C73.8295 27.1431 74.1367 26.8267 74.1367 26.4576C74.1367 26.0709 73.8114 25.7721 73.432 25.7721H16.5518C16.1543 25.7721 15.8472 26.0885 15.8472 26.4576C15.8472 26.8443 16.1724 27.1431 16.5518 27.1431H73.432Z" fill="#333333"/>
<path d="M16.5518 19.1629H73.432C73.8295 19.1629 74.1367 18.8465 74.1367 18.4774C74.1367 18.0907 73.8114 17.7919 73.432 17.7919H16.5518C16.1543 17.7919 15.8472 18.1083 15.8472 18.4774C15.8472 18.8465 16.1543 19.1629 16.5518 19.1629Z" fill="#333333"/>
</svg>
