<svg width="120" height="119" viewBox="0 0 120 119" fill="none" xmlns="http://www.w3.org/2000/svg">
<path d="M66.5641 55.769L53.1516 65.3089L66.6795 84.3283C61.7721 86.5611 56.3371 86.6526 51.2078 84.6404L50.6444 102.313C61.4422 104.696 73.0631 102.236 83.6104 94.7344C86.0662 92.9877 88.2678 91.0831 90.2373 89.0532L66.5641 55.769Z" fill="#4285F4"/>
<path d="M39.5882 45.1308L35.8077 43.9242L22.3056 39.7391C15.1388 53.5935 15.8077 71.0657 25.6336 84.8804C32.4202 94.422 41.1956 100.227 50.6439 102.312L51.2074 84.6397C46.89 82.9692 42.774 79.8491 39.3922 75.0944C32.8568 65.906 33.3806 53.7772 39.5785 45.1595L39.5882 45.1308Z" fill="#34A853"/>
<path d="M53.3496 17.6587C46.9763 18.5634 40.7358 20.9219 35.1316 24.9079C29.5275 28.894 25.252 34.0152 22.3062 39.7388C22.2749 39.761 39.6115 45.1378 39.6115 45.1378C41.1867 42.953 43.0934 40.9677 45.392 39.3328C47.6907 37.6978 50.1917 36.5481 52.7723 35.7769L53.3496 17.6587Z" fill="#FBBC05"/>
<path d="M81.11 45.4231C84.8119 50.6278 86.3394 56.5081 85.5669 62.6213L102.682 65.6874C103.922 55.565 101.687 45.1565 94.9002 35.6145C85.0743 21.7998 68.8199 15.412 53.3494 17.6587L52.7712 35.7771C62.9452 32.7495 74.5746 36.2346 81.11 45.4231Z" fill="#EA4335"/>
</svg>
