<svg width="39" height="40" viewBox="0 0 39 40" fill="none" xmlns="http://www.w3.org/2000/svg">
<path fill-rule="evenodd" clip-rule="evenodd" d="M26.8809 0.147498C22.1255 1.86629 16.9563 4.2714 11.719 7.29668C7.69402 9.62163 3.98041 12.1098 0.687167 14.6376C2.42904 15.318 4.15284 16.1568 5.83897 17.1469L28.2789 2.04566C28.2279 1.95724 28.1755 1.86935 28.1218 1.78201C27.7546 1.18557 27.3384 0.640257 26.8809 0.147498ZM26.3308 32.0136C22.2875 35.0947 18.2367 37.753 14.375 39.9211C14.6567 37.4377 14.6934 34.8613 14.4806 32.2395L36.9205 17.1382C36.9764 17.2234 37.0312 17.3096 37.0849 17.397C37.8089 18.573 38.2807 19.8483 38.516 21.1609C35.0903 24.7746 30.9683 28.4796 26.3308 32.0136Z" fill="#421116"/>
</svg>
