<svg width="30" height="33" viewBox="0 0 30 33" fill="none" xmlns="http://www.w3.org/2000/svg">
<path fill-rule="evenodd" clip-rule="evenodd" d="M23.4434 27.5451C23.9862 27.1564 24.5293 26.7596 25.0723 26.355C26.5171 25.2782 27.909 24.1841 29.2421 23.0813C27.4564 19.3221 25.3243 15.445 22.8721 11.57C20.4184 7.69246 17.8307 4.11166 15.2055 0.90167C13.8032 1.60612 12.3883 2.35894 10.9684 3.15873C10.2344 3.57221 9.5113 3.99133 8.79985 4.41528C11.5525 7.73999 14.269 11.4752 16.8386 15.5358C19.3992 19.5822 21.6108 23.6308 23.4434 27.5451ZM0.912173 9.65085C2.76887 8.27608 4.76159 6.91645 6.86957 5.59508C9.85601 9.12097 12.8108 13.1365 15.5932 17.5335C17.9704 21.29 20.0468 25.0483 21.7983 28.6994C19.7487 30.1081 17.7115 31.3989 15.7154 32.5624C13.9743 28.9436 11.9146 25.2205 9.55972 21.4993C6.80088 17.1396 3.8727 13.155 0.912173 9.65085Z" fill="url(#paint0_radial_13_92)"/>
<defs>
<radialGradient id="paint0_radial_13_92" cx="0" cy="0" r="1" gradientUnits="userSpaceOnUse" gradientTransform="translate(15.0159 16.6758) rotate(89.9508) scale(15.8835 15.7891)">
<stop stop-color="white"/>
<stop offset="0.408333" stop-color="white"/>
<stop offset="0.647916" stop-color="white"/>
<stop offset="1" stop-color="#E3E3E3"/>
</radialGradient>
</defs>
</svg>
