<svg width="144" height="144" viewBox="0 0 144 144" fill="none" xmlns="http://www.w3.org/2000/svg">
<path fill-rule="evenodd" clip-rule="evenodd" d="M10.8508 110.917C14.5509 110.037 18.7286 108.697 23.0956 106.927C31.5271 103.511 38.7165 99.2849 42.8393 95.6023C44.6894 92.4655 45.6215 89.8414 45.409 88.1269C43.9335 87.2218 41.1232 87.0267 37.4464 87.4905C32.5541 89.7833 26.0545 94.539 19.7728 100.712C16.2123 104.211 13.1793 107.716 10.8508 110.917Z" fill="white"/>
<ellipse cx="5.25107" cy="11.7536" rx="5.25107" ry="11.7536" transform="matrix(0.534737 0.845019 -0.835647 0.549266 43.4972 83.0645)" fill="white"/>
<path fill-rule="evenodd" clip-rule="evenodd" d="M58.7461 91.0662C57.936 88.1609 56.6122 85.1551 54.7795 82.2589C52.9922 79.4346 50.912 77.0166 48.7114 75.0894L43.4252 78.564C45.6258 80.4911 47.706 82.9092 49.4933 85.7335C51.326 88.6296 52.6498 91.6355 53.4599 94.5408L58.7461 91.0662Z" fill="#242E22"/>
<path fill-rule="evenodd" clip-rule="evenodd" d="M73.0284 58.4999C72.9738 58.4079 72.9177 58.3164 72.8602 58.2255C69.393 52.7465 61.8852 51.3922 56.091 55.2007L36.4799 68.091C35.8872 68.4805 35.3354 68.909 34.8261 69.3703C39.661 69.804 44.5969 71.4298 49.267 74.1181L73.0284 58.4999Z" fill="#FF0000"/>
<path fill-rule="evenodd" clip-rule="evenodd" d="M58.5163 89.8214L82.2777 74.2032C82.3374 74.2918 82.396 74.3816 82.4536 74.4725C85.9208 79.9515 84.0344 87.4806 78.2402 91.289L58.6291 104.179C58.0364 104.569 57.4258 104.904 56.8034 105.187C58.41 100.519 58.9929 95.2661 58.5163 89.8214Z" fill="#FF0000"/>
<path fill-rule="evenodd" clip-rule="evenodd" d="M70.8809 57.1475C66.1255 58.8663 60.9563 61.2714 55.719 64.2967C51.694 66.6216 47.9804 69.1098 44.6872 71.6376C46.429 72.318 48.1528 73.1568 49.839 74.1469L72.2789 59.0457C72.2279 58.9573 72.1755 58.8694 72.1218 58.782C71.7546 58.1856 71.3384 57.6403 70.8809 57.1475ZM70.3308 89.0136C66.2875 92.0947 62.2367 94.7531 58.375 96.9212C58.6567 94.4377 58.6934 91.8613 58.4806 89.2395L80.9205 74.1383C80.9764 74.2234 81.0312 74.3096 81.0849 74.397C81.8089 75.573 82.2807 76.8483 82.516 78.1609C79.0903 81.7746 74.9683 85.4796 70.3308 89.0136Z" fill="#421116"/>
<path fill-rule="evenodd" clip-rule="evenodd" d="M44.9581 76.5384C48.1399 79.1689 51.0352 82.6182 53.3318 86.7421C54.5503 88.93 55.5243 91.1713 56.2593 93.4138C63.0507 92.0849 72.5904 87.4212 82.0722 80.355C93.5206 71.8232 101.648 62.2012 103.463 55.7577C104.232 53.7607 104.311 52.0077 103.583 50.6278C100.544 44.8673 84.5984 47.7913 67.9684 57.1587C57.1447 63.2556 48.6986 70.5793 44.9581 76.5384Z" fill="#FF0000"/>
<path fill-rule="evenodd" clip-rule="evenodd" d="M80.4434 81.5451C80.9862 81.1564 81.5293 80.7596 82.0723 80.355C83.5171 79.2783 84.909 78.1842 86.2421 77.0813C84.4564 73.3221 82.3243 69.4451 79.8721 65.57C77.4184 61.6925 74.8307 58.1117 72.2055 54.9017C70.8032 55.6061 69.3883 56.359 67.9684 57.1587C67.2344 57.5722 66.5113 57.9913 65.7999 58.4153C68.5525 61.74 71.269 65.4752 73.8386 69.5358C76.3992 73.5822 78.6108 77.6308 80.4434 81.5451ZM57.9122 63.6509C59.7689 62.2761 61.7616 60.9165 63.8696 59.5951C66.856 63.121 69.8108 67.1365 72.5932 71.5335C74.9704 75.29 77.0468 79.0483 78.7983 82.6994C76.7487 84.1081 74.7115 85.3989 72.7154 86.5624C70.9743 82.9436 68.9146 79.2205 66.5597 75.4993C63.8009 71.1396 60.8727 67.155 57.9122 63.6509Z" fill="url(#paint0_radial_77_16)"/>
<ellipse cx="2.53417" cy="9.09626" rx="2.53417" ry="9.09626" transform="matrix(0.534737 0.845019 -0.835647 0.549266 76.5544 65.2796)" fill="#FF0000"/>
<path d="M71.7001 74.5346C68.691 76.5125 65.6763 78.4156 62.8281 80.1353C59.98 81.855 57.3541 83.3576 55.1005 84.5573C52.8469 85.757 51.0097 86.6303 49.6938 87.1274C48.3778 87.6245 47.6089 87.7356 47.431 87.4544C47.253 87.1732 47.6695 86.5051 48.6566 85.4884C49.6437 84.4717 51.1822 83.1263 53.1841 81.5289C55.186 79.9314 57.6122 78.1134 60.3242 76.1784C63.0361 74.2435 65.9807 72.2296 68.9898 70.2518L70.345 72.3932L71.7001 74.5346Z" fill="#FF0000"/>
<g filter="url(#filter0_d_77_16)">
<ellipse cx="7.18015" cy="7.6838" rx="7.18015" ry="7.6838" transform="matrix(0.534737 0.845019 -0.835647 0.549266 94.8108 47.4838)" fill="#C4C4C4"/>
<g filter="url(#filter1_i_77_16)">
<ellipse cx="3.80126" cy="4.06789" rx="3.80126" ry="4.06789" transform="matrix(0.534737 0.845019 -0.835647 0.549266 93.596 52.3251)" fill="#6CCAD7"/>
</g>
</g>
<defs>
<filter id="filter0_d_77_16" x="80.7469" y="50.3801" width="22.9649" height="22.7831" filterUnits="userSpaceOnUse" color-interpolation-filters="sRGB">
<feFlood flood-opacity="0" result="BackgroundImageFix"/>
<feColorMatrix in="SourceAlpha" type="matrix" values="0 0 0 0 0 0 0 0 0 0 0 0 0 0 0 0 0 0 127 0" result="hardAlpha"/>
<feOffset dy="4"/>
<feGaussianBlur stdDeviation="2"/>
<feComposite in2="hardAlpha" operator="out"/>
<feColorMatrix type="matrix" values="0 0 0 0 0 0 0 0 0 0 0 0 0 0 0 0 0 0 0.25 0"/>
<feBlend mode="normal" in2="BackgroundImageFix" result="effect1_dropShadow_77_16"/>
<feBlend mode="normal" in="SourceGraphic" in2="effect1_dropShadow_77_16" result="shape"/>
</filter>
<filter id="filter1_i_77_16" x="88.2681" y="53.8584" width="7.92261" height="11.8263" filterUnits="userSpaceOnUse" color-interpolation-filters="sRGB">
<feFlood flood-opacity="0" result="BackgroundImageFix"/>
<feBlend mode="normal" in="SourceGraphic" in2="BackgroundImageFix" result="shape"/>
<feColorMatrix in="SourceAlpha" type="matrix" values="0 0 0 0 0 0 0 0 0 0 0 0 0 0 0 0 0 0 127 0" result="hardAlpha"/>
<feOffset dy="4"/>
<feGaussianBlur stdDeviation="2"/>
<feComposite in2="hardAlpha" operator="arithmetic" k2="-1" k3="1"/>
<feColorMatrix type="matrix" values="0 0 0 0 0 0 0 0 0 0 0 0 0 0 0 0 0 0 0.25 0"/>
<feBlend mode="normal" in2="shape" result="effect1_innerShadow_77_16"/>
</filter>
<radialGradient id="paint0_radial_77_16" cx="0" cy="0" r="1" gradientUnits="userSpaceOnUse" gradientTransform="translate(72.0159 70.6758) rotate(89.9508) scale(15.8835 15.7891)">
<stop stop-color="white"/>
<stop offset="0.408333" stop-color="white"/>
<stop offset="0.647916" stop-color="white"/>
<stop offset="1" stop-color="#E3E3E3"/>
</radialGradient>
</defs>
</svg>
