<svg width="65" height="65" viewBox="0 0 65 65" fill="none" xmlns="http://www.w3.org/2000/svg">
<g clip-path="url(#clip0_29_2446)">
<path d="M63.7054 16.7523C63.3379 15.3694 62.6136 14.1074 61.6051 13.0924C60.5966 12.0774 59.3392 11.3451 57.9588 10.9687C52.877 9.60226 32.5645 9.60226 32.5645 9.60226C32.5645 9.60226 12.252 9.60226 7.17014 10.9687C5.78968 11.3451 4.53228 12.0774 3.52377 13.0924C2.51527 14.1074 1.79103 15.3694 1.42354 16.7523C0.0644533 21.8562 0.0644531 32.5 0.0644531 32.5C0.0644531 32.5 0.0644533 43.1437 1.42354 48.2477C1.79103 49.6306 2.51527 50.8926 3.52377 51.9076C4.53228 52.9226 5.78968 53.6549 7.17014 54.0312C12.252 55.3977 32.5645 55.3977 32.5645 55.3977C32.5645 55.3977 52.877 55.3977 57.9588 54.0312C59.3392 53.6549 60.5966 52.9226 61.6051 51.9076C62.6136 50.8926 63.3379 49.6306 63.7054 48.2477C65.0645 43.1437 65.0645 32.5 65.0645 32.5C65.0645 32.5 65.0645 21.8562 63.7054 16.7523Z" fill="#FF0302"/>
<path d="M25.9168 42.1651V22.835L42.9054 32.5001L25.9168 42.1651Z" fill="#FEFEFE"/>
</g>
<defs>
<clipPath id="clip0_29_2446">
<rect width="65" height="65" fill="white"/>
</clipPath>
</defs>
</svg>
