<svg width="64" height="64" viewBox="0 0 64 64" fill="none" xmlns="http://www.w3.org/2000/svg">
<path d="M43.6508 29.4459C45.6173 32.6961 48.581 35.3817 52.3356 36.9886L55.4388 29.7378C54.7282 29.4338 54.0512 29.0561 53.4193 28.6108L50.9767 34.3182C47.2223 32.7115 44.2591 30.0261 42.2918 26.7757L35.9591 41.5724C32.7912 48.9745 24.244 52.4157 16.8686 49.2592C14.1167 48.0815 11.9163 46.1519 10.4043 43.8106C11.7644 47.3369 14.4857 50.328 18.2272 51.9292C25.603 55.0859 34.1505 51.6449 37.3185 44.2425L43.6511 29.446L43.6508 29.4459V29.4459ZM49.39 23.2471C48.6202 21.0364 48.5474 18.574 49.3136 16.2142L49.7128 15.2815L47.709 14.424C46.9777 17.5272 47.6423 20.7302 49.39 23.2471ZM17.5002 40.1269C17.1462 38.714 17.2666 37.2223 17.8425 35.8821C19.2914 32.4967 23.201 30.9222 26.5751 32.3662C27.204 32.6352 27.7877 32.9993 28.3053 33.4466L31.4778 26.0337C30.8187 25.6377 30.1294 25.2943 29.4165 25.0069L26.9472 30.7767C26.4291 30.3293 25.8453 29.9647 25.216 29.6961C21.8419 28.2521 17.9326 29.8264 16.4835 33.2122C15.4589 35.6063 15.9388 38.264 17.5002 40.1269Z" fill="#FF004F"/>
<path d="M42.2918 26.7755C44.2591 30.0259 47.2224 32.7113 50.9767 34.318L53.4193 28.6106C51.5154 27.2658 50.1306 25.3727 49.3899 23.247C47.6422 20.7299 46.9777 17.527 47.7089 14.4239L42.4455 12.1713L30.0511 41.1318C28.5943 44.5029 24.6941 46.0682 21.3272 44.6273C19.3432 43.7782 17.9868 42.0747 17.4997 40.1267C15.9384 38.2639 15.4586 35.606 16.4831 33.2122C17.932 29.8266 21.8415 28.2521 25.2156 29.6961C25.8621 29.9728 26.4419 30.3405 26.9467 30.7767L29.4161 25.0069C22.106 22.0561 13.7358 25.5037 10.6084 32.811C9.0473 36.4587 9.0832 40.3866 10.4044 43.8108C11.9164 46.1519 14.1168 48.0817 16.8687 49.2594C24.2442 52.4159 32.7913 48.9744 35.9592 41.5725L42.2919 26.7755L42.2918 26.7755Z" fill="black"/>
<path d="M53.4194 28.6107L54.0799 27.0674C52.1889 26.2615 50.5635 24.9375 49.39 23.2469C50.1419 25.4138 51.5507 27.2889 53.4194 28.6107ZM47.709 14.424C47.779 14.1274 47.8609 13.8339 47.9546 13.5441L48.3537 12.6115L41.0863 9.50122L28.6918 38.462C27.2354 41.8328 23.3354 43.3982 19.9683 41.9571C18.9797 41.534 18.1472 40.8991 17.4997 40.1269C17.9868 42.0747 19.3433 43.778 21.3273 44.6272C24.6939 46.068 28.5944 44.5032 30.0511 41.132L42.4456 12.1714L47.709 14.424ZM29.4164 25.0071L30.1195 23.3642C29.5479 23.021 28.9536 22.7172 28.3405 22.4552C20.9645 19.2982 12.4172 22.7397 9.2495 30.1412C7.26355 34.7815 7.86329 39.8767 10.4047 43.8106C9.08346 40.3866 9.04762 36.4585 10.6087 32.8109C13.736 25.5038 22.106 22.0562 29.4164 25.0071Z" fill="#00F2EA"/>
</svg>
